<?xml version="1.0" encoding="utf-8"?>
<!-- Generator: Adobe Illustrator 16.0.0, SVG Export Plug-In . SVG Version: 6.00 Build 0)  -->
<!DOCTYPE svg PUBLIC "-//W3C//DTD SVG 1.1//EN" "http://www.w3.org/Graphics/SVG/1.1/DTD/svg11.dtd">
<svg version="1.1" id="Layer_1" xmlns="http://www.w3.org/2000/svg" xmlns:xlink="http://www.w3.org/1999/xlink" x="0px" y="0px"
	 width="55.418px" height="35.625px" viewBox="0 0 55.418 35.625" enable-background="new 0 0 55.418 35.625" xml:space="preserve">
<path fill="#919292" d="M55.181,30.678c-0.051-0.008-0.217-0.025-0.477-0.047c-1.273-0.104-2.664-0.361-3.492-2.508
	c-0.267-0.688-10.721-27.79-10.791-27.971c-0.078-0.207-0.274-0.201-0.342,0.007c-0.061,0.178-2.831,8.394-2.831,8.394l7.211,19.849
	c0.127,0.367,0.25,0.731,0.25,1.014c0,0.354-0.238,0.762-0.644,0.953c-0.317,0.148-0.925,0.229-1.392,0.27
	c-0.147,0.012-0.272,0.024-0.405,0.045c-0.146,0.021-0.205,0.146-0.205,0.256c0,0.137,0.103,0.232,0.25,0.232h12.881
	c0.108,0,0.224-0.102,0.224-0.217C55.419,30.753,55.3,30.698,55.181,30.678"/>
<path fill="#919292" d="M26.122,1.344c0.379-0.223,0.875-0.33,1.879-0.384c0.142-0.007,0.253-0.086,0.253-0.229
	c0-0.15-0.117-0.234-0.226-0.234c-0.11,0-5.949-0.002-6.091-0.002c-0.143,0-0.307,0.043-0.307,0.233c0,0.097,0.04,0.206,0.227,0.231
	c0.142,0.018,0.466,0.038,0.827,0.063c0.871,0.062,1.206,0.152,1.456,0.513c0.235,0.338,0.108,0.938-0.156,1.653
	C23.72,3.9,16.709,21.875,16.709,21.875h-0.028c-0.085-0.264-5.639-17.726-5.88-18.479c-0.24-0.754-0.337-1.285-0.213-1.576
	c0.227-0.531,0.679-0.719,1.805-0.797c0.155-0.01,0.227-0.016,0.368-0.027c0.148-0.014,0.232-0.144,0.2-0.303
	c-0.033-0.166-0.129-0.199-0.311-0.199c-0.083,0-11.678,0.001-11.731,0.001c-0.108,0-0.226,0.071-0.238,0.221
	C0.672,0.834,0.727,0.9,0.799,0.932C0.867,0.964,1.073,0.991,1.46,1.018C2.318,1.08,2.596,1.152,2.913,1.303
	c0.644,0.308,1.085,1.133,1.305,1.792c0.22,0.658,9.332,28.053,9.361,28.137c0.044,0.129,0.229,0.135,0.284,0.004
	C13.92,31.104,25.215,2.754,25.377,2.358C25.516,2.018,25.74,1.568,26.122,1.344"/>
<path fill="#919292" d="M22.917,23.562c0-1.506,0.528-3.465,2.453-4.701c0,0,0.001,0.002,0.002,0.004l-0.002-0.004
	c0.002,0.003,0.004,0.007,0.006,0.01c0.003,0.005,0.007,0.012,0.013,0.021c4.198,6.477,4.432,6.848,6.473,9.979
	c-0.897,0.596-1.892,0.954-2.887,0.954C25.574,29.826,22.917,26.67,22.917,23.562 M26.812,10.04c0.393-0.566,0.981-0.8,1.77-0.8
	c1.071,0,2.381,0.999,2.381,3.523c0,1.587-0.802,3.111-2.091,3.96c0,0-1.112-1.718-1.749-2.917
	C26.563,12.757,26.05,11.133,26.812,10.04 M40.005,28.734c-0.248-0.075-0.403,0.078-0.586,0.511c-0.213,0.5-0.67,0.636-1.107,0.636
	c-0.82,0-1.647-0.939-2.261-1.896c-0.034-0.053-0.383-0.6-0.906-1.422c1.333-1.852,2.093-4.02,2.44-5.451
	c0.119-0.491,0.299-1.237,0.562-1.549c0.368-0.43,0.77-0.554,1.352-0.609c0.252-0.025,0.363-0.037,0.457-0.064
	c0.133-0.039,0.17-0.162,0.157-0.255c-0.018-0.136-0.114-0.196-0.218-0.196s-4.933,0-5.075,0c-0.169,0-0.246,0.107-0.246,0.238
	c0,0.122,0.08,0.19,0.196,0.221c0.08,0.02,0.224,0.033,0.321,0.039c0.636,0.031,1.101,0.104,1.391,0.297
	c0.468,0.312,0.422,0.797,0.334,1.459c-0.199,1.479-0.949,3.658-2.041,5.295c-1.987-3.115-5.591-8.772-5.591-8.772
	s1.492-0.775,2.505-1.358c0.989-0.567,2.501-1.711,2.501-3.579c0-1.107-0.634-1.969-1.502-2.543
	c-0.892-0.59-2.229-1.062-3.747-1.062c-1.891,0-3.914,0.694-5.009,2.433c-1.058,1.679-0.785,4.13,0.46,6.18
	c0.336,0.555,0.705,1.113,0.705,1.113c-0.442,0.158-0.991,0.396-1.455,0.605c-2.516,1.169-4.652,3.352-4.652,6.348
	c0,3.33,2.477,6.008,7.043,6.008c2.49,0,4.542-0.789,6.178-1.957c0.754,1.021,2.149,1.789,4.154,1.789
	c1.903,0,3.41-1.106,3.799-2.016C40.232,29.018,40.192,28.794,40.005,28.734"/>
</svg>
