<?xml version="1.0" encoding="utf-8"?>
<!-- Generator: Adobe Illustrator 16.0.0, SVG Export Plug-In . SVG Version: 6.00 Build 0)  -->
<!DOCTYPE svg PUBLIC "-//W3C//DTD SVG 1.1//EN" "http://www.w3.org/Graphics/SVG/1.1/DTD/svg11.dtd">
<svg version="1.1" id="Layer_1" xmlns="http://www.w3.org/2000/svg" xmlns:xlink="http://www.w3.org/1999/xlink" x="0px" y="0px"
	 width="87px" height="35.625px" viewBox="216.55 0 87 35.625" enable-background="new 216.55 0 87 35.625" xml:space="preserve">
<path fill="#919292" d="M235.468,18.234c-3.327,0-6.025,2.696-6.025,6.024s2.698,6.024,6.025,6.024c3.326,0,6.023-2.696,6.023-6.024
	S238.794,18.234,235.468,18.234 M222.574,18.234c-3.326,0-6.023,2.696-6.023,6.024s2.697,6.024,6.023,6.024
	c3.327,0,6.024-2.696,6.024-6.024S225.901,18.234,222.574,18.234 M235.468,5.342c-3.327,0-6.025,2.697-6.025,6.025
	c0,3.327,2.698,6.023,6.025,6.023c3.326,0,6.023-2.696,6.023-6.023C241.492,8.039,238.794,5.342,235.468,5.342 M222.574,5.342
	c-3.326,0-6.023,2.697-6.023,6.025c0,3.327,2.697,6.023,6.023,6.023c3.327,0,6.024-2.696,6.024-6.023
	C228.599,8.039,225.901,5.342,222.574,5.342 M259.151,7.937h-1.871v3.198h1.79c1.295,0,1.902-0.671,1.902-1.631
	C260.973,8.641,260.414,7.937,259.151,7.937 M261.531,16.84c-1.533-3.18-1.934-4.076-2.572-4.076h-1.678v4.076h-1.806V6.308h3.562
	c2.717,0,3.756,1.438,3.756,3.036c0,1.407-0.812,2.351-1.947,2.7v0.017c0.479,0.272,0.986,1.264,2.747,4.779H261.531z
	 M276.516,6.308h-8.552v1.646h3.371v8.886h1.808V7.954h3.373V6.308z M303.55,29.32v-1.631h-4.123v-8.902h-1.807V29.32H303.55z
	 M295.97,18.787h-1.805V29.32h1.805V18.787z M281.914,29.32h1.599V18.788h-1.806v5.769c0,0.495,0.017,1.058,0.047,1.407h-0.03
	l-4.892-7.176h-1.951V29.32h1.81v-6.266c0-0.496-0.019-1.057-0.048-1.406h0.029L281.914,29.32z M268.994,29.48
	c2.651,0,4.282-1.265,4.282-4.125v-6.568h-1.806v6.633c0,1.757-0.912,2.414-2.447,2.414c-1.501,0-2.445-0.657-2.445-2.414v-6.633
	h-1.806v6.568C264.772,28.218,266.387,29.48,268.994,29.48 M261.648,24.077c0-2.302-1.311-3.772-3.085-3.772
	s-3.085,1.473-3.085,3.788c0,2.306,1.311,3.773,3.085,3.773S261.648,26.396,261.648,24.077 M263.552,24.044
	c0,3.167-2.018,5.437-4.988,5.437c-3.004,0-4.986-2.188-4.986-5.354s2.014-5.436,4.986-5.436
	C261.57,18.689,263.552,20.882,263.552,24.044 M284.867,24.109c0,3.166,1.805,5.371,4.957,5.371c1.15,0,2.029-0.227,2.924-0.623
	l-0.543-1.535c-0.513,0.242-1.185,0.527-2.189,0.527c-2.077,0-3.244-1.692-3.244-3.772c0-2.062,1.246-3.755,3.244-3.755
	c1.007,0,1.679,0.287,2.189,0.525l0.543-1.535c-0.895-0.397-1.771-0.623-2.924-0.623C286.671,18.689,284.867,21.152,284.867,24.109
	 M245.346,24.109c0,3.166,1.805,5.371,4.954,5.371c1.15,0,2.029-0.227,2.927-0.623l-0.545-1.535
	c-0.513,0.242-1.185,0.527-2.188,0.527c-2.078,0-3.244-1.692-3.244-3.772c0-2.062,1.246-3.755,3.244-3.755
	c1.006,0,1.678,0.287,2.188,0.525l0.545-1.535c-0.897-0.397-1.774-0.623-2.927-0.623C247.15,18.689,245.346,21.152,245.346,24.109
	 M299.427,16.84V6.306h-1.807v4.316h-5.117V6.306h-1.805V16.84h1.805V12.3h5.117v4.54H299.427z M281.781,9.183
	c0,3.597,5.37,2.604,5.37,4.86c0,0.957-1.007,1.374-2.095,1.374c-1.215,0-2.238-0.431-2.879-0.831l-0.75,1.471
	c0.783,0.478,1.919,0.941,3.562,0.941c2.415,0,4.078-1.245,4.078-3.212c0-3.564-5.421-2.7-5.421-4.858
	c0-0.831,0.851-1.137,1.838-1.137c1.103,0,2.03,0.289,2.942,0.737l0.027-1.728c-0.637-0.318-1.789-0.591-2.924-0.591
	C283.313,6.21,281.781,7.264,281.781,9.183 M279.701,6.306h-1.805V16.84h1.805V6.306z M266.587,6.306h-1.805V16.84h1.805V6.306z
	 M251.604,12.475c-0.255-0.11-0.575-0.175-1.199-0.175h-2.284v2.909h2.156c0.655,0,1.04-0.08,1.344-0.223
	c0.512-0.255,0.77-0.705,0.77-1.311C252.388,13.131,252.099,12.699,251.604,12.475 M251.044,8.111
	c-0.239-0.111-0.527-0.176-0.99-0.176h-1.936v2.749h1.821c0.575,0,0.929-0.096,1.183-0.24c0.418-0.237,0.625-0.639,0.625-1.15
	C251.748,8.767,251.507,8.336,251.044,8.111 M246.312,16.84V6.306h3.868c0.832,0,1.374,0.127,1.821,0.335
	c1.069,0.513,1.553,1.487,1.553,2.382c0,1.009-0.418,1.693-1.266,2.206v0.032c1.215,0.271,1.95,1.117,1.95,2.397
	c0,1.423-0.862,2.51-2.334,2.958c-0.526,0.16-1.103,0.224-2.015,0.224H246.312z"/>
</svg>
