<?xml version="1.0" encoding="utf-8"?>
<!-- Generator: Adobe Illustrator 16.0.0, SVG Export Plug-In . SVG Version: 6.00 Build 0)  -->
<!DOCTYPE svg PUBLIC "-//W3C//DTD SVG 1.1//EN" "http://www.w3.org/Graphics/SVG/1.1/DTD/svg11.dtd">
<svg version="1.1" id="Layer_1" xmlns="http://www.w3.org/2000/svg" xmlns:xlink="http://www.w3.org/1999/xlink" x="0px" y="0px"
	 width="76.1px" height="35.625px" viewBox="98.845 0 76.1 35.625" enable-background="new 98.845 0 76.1 35.625"
	 xml:space="preserve">
<path fill="#919292" d="M127.974,1.447c2.787,0,5.048,2.26,5.048,5.049c0,2.788-2.261,5.049-5.048,5.049
	c-2.789,0-5.049-2.261-5.049-5.049C122.926,3.707,125.185,1.447,127.974,1.447 M127.974,12.992c3.588,0,6.496-2.908,6.496-6.496
	S131.562,0,127.974,0c-3.589,0-6.497,2.908-6.497,6.496S124.386,12.992,127.974,12.992"/>
<path fill="#919292" d="M111.686,17.813c0-2.745,2.225-4.971,4.971-4.971l0.001-1.42c-3.534,0-6.397,2.857-6.397,6.391
	c0,3.533,2.863,6.396,6.396,6.396c3.533,0,6.389-2.863,6.389-6.396h-1.409c0,2.746-2.235,4.971-4.98,4.971
	C113.911,22.784,111.686,20.559,111.686,17.813"/>
<path fill="#919292" d="M107.428,17.812c0,5.098,4.132,9.229,9.229,9.229c5.097,0,9.238-4.132,9.238-9.229h-1.414
	c0,4.315-3.51,7.812-7.824,7.812c-4.315,0-7.812-3.497-7.812-7.812c0-4.313,3.498-7.81,7.812-7.81V8.584
	C111.561,8.584,107.428,12.716,107.428,17.812"/>
<path fill="#919292" d="M104.564,17.812c0,6.68,5.415,12.094,12.093,12.094c6.679,0,12.08-5.413,12.08-12.094h-1.424
	c0,5.881-4.777,10.647-10.656,10.647c-5.88,0-10.646-4.768-10.646-10.647c0-5.879,4.766-10.646,10.646-10.646l0.001-1.435
	C109.979,5.732,104.564,11.134,104.564,17.812"/>
<path fill="#919292" d="M116.658,2.852c-8.263,0-14.962,6.697-14.962,14.961s6.699,14.96,14.962,14.96
	c8.262,0,14.951-6.696,14.951-14.96h-1.422c0,7.466-6.063,13.519-13.529,13.519c-7.467,0-13.519-6.053-13.519-13.519
	c0-7.467,6.052-13.521,13.519-13.521V2.852z"/>
<path fill="#919292" d="M116.658,34.206c-9.054,0-16.394-7.341-16.394-16.394c0-9.054,7.34-16.393,16.394-16.393V0
	c-9.839,0-17.813,7.975-17.813,17.812c0,9.836,7.975,17.812,17.813,17.812c9.837,0,17.812-7.974,17.812-17.812l-1.409-0.001
	C133.061,26.865,125.712,34.206,116.658,34.206"/>
<path fill="#919292" d="M142.806,15.555c0.711,0,1.586-0.159,2.062-0.383v-3.858h-2.428v1.214h0.965v1.732
	c-0.17,0.03-0.426,0.042-0.637,0.042c-1.074,0-1.908-0.567-1.908-2.391c0-1.795,0.842-2.364,2.094-2.364
	c0.524,0,1.215,0.112,1.652,0.29l0.15-1.225c-0.486-0.196-1.278-0.317-1.885-0.317c-2.16,0-3.553,1.129-3.553,3.635
	C139.319,14.379,140.609,15.555,142.806,15.555"/>
<polygon fill="#919292" points="167.285,15.415 168.789,15.415 168.789,8.406 167.285,8.406 167.285,11.175 165.033,11.175 
	165.033,8.406 163.527,8.406 163.527,15.415 165.033,15.415 165.033,12.425 167.285,12.425 "/>
<polygon fill="#919292" points="161.158,15.415 161.158,9.668 162.679,9.668 162.679,8.406 158.113,8.406 158.113,9.668 
	159.634,9.668 159.634,15.415 "/>
<polygon fill="#919292" points="154.572,12.432 157.044,12.432 157.044,11.195 154.572,11.195 154.572,9.657 157.486,9.657 
	157.486,8.407 153.068,8.407 153.068,15.415 157.583,15.415 157.583,14.165 154.572,14.165 "/>
<g>
	<path fill="#919292" d="M148.941,9.449c0.954,0,1.412,0.597,1.412,2.457c0,1.852-0.458,2.477-1.402,2.477
		c-0.953,0-1.422-0.616-1.422-2.477C147.529,10.055,147.996,9.449,148.941,9.449 M148.941,15.621c1.991,0,2.952-1.07,2.952-3.715
		c0-2.589-0.961-3.705-2.952-3.705c-1.99,0-2.951,1.116-2.951,3.705C145.99,14.495,146.988,15.621,148.941,15.621"/>
</g>
<polygon fill="#919292" points="174.794,14.165 171.783,14.165 171.783,12.432 174.255,12.432 174.255,11.196 171.783,11.196 
	171.783,9.657 174.697,9.657 174.697,8.407 170.279,8.407 170.279,15.415 174.794,15.415 "/>
<polygon fill="#919292" points="152.863,19.038 154.257,19.038 154.257,24.584 155.725,24.584 155.725,19.038 157.119,19.038 
	157.119,17.819 152.863,17.819 "/>
<rect x="139.824" y="17.82" fill="#919292" width="1.484" height="6.764"/>
<g>
	<path fill="#919292" d="M168.546,22.23c0,0.783-0.271,1.22-1,1.22c-0.726,0-1.012-0.443-1.012-1.22V17.82h-1.472v4.465
		c0,1.623,0.836,2.417,2.479,2.417c1.623,0,2.459-0.794,2.459-2.417V17.82h-1.455V22.23L168.546,22.23z"/>
	<path fill="#919292" d="M150.025,19.623c0-0.35,0.18-0.697,0.916-0.697c0.461,0,0.87,0.124,1.28,0.303l0.161-1.183
		c-0.469-0.216-0.954-0.333-1.568-0.333c-1.56,0-2.232,0.901-2.232,2.046c0,2.177,2.688,1.761,2.688,2.97
		c0,0.465-0.292,0.775-0.907,0.775c-0.604,0-1.117-0.204-1.619-0.488l-0.19,1.209c0.522,0.309,1.17,0.479,1.873,0.479
		c1.462,0,2.29-0.812,2.29-2.138C152.714,20.318,150.025,20.668,150.025,19.623"/>
</g>
<polygon fill="#919292" points="146.207,21.77 144.127,17.82 142.785,17.82 142.785,24.584 144.127,24.584 144.127,20.636 
	146.207,24.584 147.55,24.584 147.55,17.82 146.207,17.82 "/>
<polygon fill="#919292" points="170.687,17.82 170.687,19.038 172.082,19.038 172.082,24.584 173.55,24.584 173.55,19.038 
	174.945,19.038 174.945,17.82 "/>
<rect x="157.871" y="17.82" fill="#919292" width="1.484" height="6.764"/>
<polygon fill="#919292" points="160.107,19.038 161.501,19.038 161.501,24.584 162.97,24.584 162.97,19.038 164.365,19.038 
	164.365,17.819 160.107,17.819 "/>
</svg>
